<svg width="32" height="18" viewBox="0 0 32 18" fill="none" xmlns="http://www.w3.org/2000/svg">
<path d="M30.2088 0.902411C28.3299 0.248705 26.4496 4.83251e-08 24.5703 4.83251e-08C18.6043 -0.000401737 12.6388 2.50473 6.6729 2.50473C5.17668 2.50473 3.68144 2.34723 2.18523 1.95348C2.01716 1.90929 1.8486 1.88839 1.68391 1.88839C0.850315 1.88839 0.121826 2.42357 0.121826 3.16647V15.9135C0.121826 16.421 0.472024 16.9019 1.03437 17.0972C2.91324 17.7513 4.79355 18 6.6729 18C12.6388 18 18.6048 15.4949 24.5708 15.4949C26.067 15.4949 27.5622 15.6524 29.0584 16.0461C29.2265 16.0903 29.3951 16.1112 29.5597 16.1112C30.3933 16.1112 31.1218 15.576 31.1218 14.8331V2.08647C31.1213 1.57862 30.7711 1.09808 30.2088 0.902411ZM2.44679 4.0267C3.42134 4.2292 4.43851 4.33085 5.48474 4.38549C5.19993 5.56634 3.94833 6.45629 2.44679 6.45629V4.0267ZM2.44679 15.4776V13.5579C4.11156 13.5579 5.45859 14.6535 5.53269 16.0248C4.44141 15.9521 3.42134 15.7713 2.44679 15.4776ZM15.6216 12.8571C13.4812 12.8571 11.7466 11.1299 11.7466 9C11.7466 6.86973 13.4816 5.14286 15.6216 5.14286C17.7615 5.14286 19.4965 6.86973 19.4965 9C19.4965 11.1307 17.761 12.8571 15.6216 12.8571ZM28.7964 13.9733C27.9478 13.7969 27.0667 13.6981 26.1653 13.6342C26.4496 12.5863 27.4973 11.7908 28.7964 11.6542V13.9733ZM28.7964 4.48674C27.3002 4.32964 26.1391 3.29344 26.0931 2.01375C27.0396 2.10094 27.9381 2.26406 28.7964 2.52241V4.48674Z" fill="white"/>
</svg>
