<svg width="47" height="46" viewBox="0 0 47 46" fill="none" xmlns="http://www.w3.org/2000/svg">
<g filter="url(#filter0_d)">
<rect x="6.47559" y="3" width="34" height="34" rx="17" fill="#FAFAFA"/>
<rect x="6.97559" y="3.5" width="33" height="33" rx="16.5" stroke="#8FA1C0"/>
</g>
<path d="M16.4756 17.3604V16.8804C16.4756 16.4828 16.7694 16.1605 17.1318 16.1605H26.9756V14.7206C26.9756 14.0797 27.6838 13.7595 28.0959 14.2116L30.2834 16.6113C30.5397 16.8925 30.5397 17.3483 30.2834 17.6294L28.0959 20.0292C27.6853 20.4795 26.9756 20.1637 26.9756 19.5201V18.0803H17.1318C16.7694 18.0803 16.4756 17.758 16.4756 17.3604ZM29.8193 21.9199H19.9756V20.48C19.9756 19.8407 19.2684 19.5177 18.8553 19.971L16.6678 22.3707C16.4115 22.6519 16.4115 23.1077 16.6678 23.3888L18.8553 25.7886C19.2662 26.2393 19.9756 25.9226 19.9756 25.2795V23.8397H29.8193C30.1818 23.8397 30.4756 23.5174 30.4756 23.1198V22.6398C30.4756 22.2422 30.1818 21.9199 29.8193 21.9199Z" fill="#5E708C"/>
<defs>
<filter id="filter0_d" x="0.475586" y="0" width="46" height="46" filterUnits="userSpaceOnUse" color-interpolation-filters="sRGB">
<feFlood flood-opacity="0" result="BackgroundImageFix"/>
<feColorMatrix in="SourceAlpha" type="matrix" values="0 0 0 0 0 0 0 0 0 0 0 0 0 0 0 0 0 0 127 0"/>
<feMorphology radius="1" operator="dilate" in="SourceAlpha" result="effect1_dropShadow"/>
<feOffset dy="3"/>
<feGaussianBlur stdDeviation="2.5"/>
<feColorMatrix type="matrix" values="0 0 0 0 0 0 0 0 0 0 0 0 0 0 0 0 0 0 0.06 0"/>
<feBlend mode="normal" in2="BackgroundImageFix" result="effect1_dropShadow"/>
<feBlend mode="normal" in="SourceGraphic" in2="effect1_dropShadow" result="shape"/>
</filter>
</defs>
</svg>
